<svg width="25" height="24" viewBox="0 0 25 24" fill="none" xmlns="http://www.w3.org/2000/svg">
<g id="User Interface / Logout">
<path id="Vector" d="M4.27576 12C4.27576 12.2652 4.38111 12.5196 4.56865 12.7071C4.75619 12.8946 5.01054 13 5.27576 13H12.8658L10.5658 15.29C10.472 15.383 10.3976 15.4936 10.3469 15.6154C10.2961 15.7373 10.27 15.868 10.27 16C10.27 16.132 10.2961 16.2627 10.3469 16.3846C10.3976 16.5064 10.472 16.617 10.5658 16.71C10.6587 16.8037 10.7693 16.8781 10.8912 16.9289C11.013 16.9797 11.1437 17.0058 11.2758 17.0058C11.4078 17.0058 11.5385 16.9797 11.6603 16.9289C11.7822 16.8781 11.8928 16.8037 11.9858 16.71L15.9858 12.71C16.0768 12.6149 16.1482 12.5028 16.1958 12.38C16.2958 12.1365 16.2958 11.8635 16.1958 11.62C16.1482 11.4972 16.0768 11.3851 15.9858 11.29L11.9858 7.29C11.8925 7.19676 11.7818 7.1228 11.66 7.07234C11.5382 7.02188 11.4076 6.99591 11.2758 6.99591C11.1439 6.99591 11.0133 7.02188 10.8915 7.07234C10.7697 7.1228 10.659 7.19676 10.5658 7.29C10.4725 7.38324 10.3986 7.49393 10.3481 7.61575C10.2976 7.73757 10.2717 7.86814 10.2717 8C10.2717 8.13186 10.2976 8.26243 10.3481 8.38425C10.3986 8.50607 10.4725 8.61676 10.5658 8.71L12.8658 11H5.27576C5.01054 11 4.75619 11.1054 4.56865 11.2929C4.38111 11.4804 4.27576 11.7348 4.27576 12ZM17.2758 2H7.27576C6.48011 2 5.71705 2.31607 5.15444 2.87868C4.59183 3.44129 4.27576 4.20435 4.27576 5V8C4.27576 8.26522 4.38111 8.51957 4.56865 8.70711C4.75619 8.89464 5.01054 9 5.27576 9C5.54097 9 5.79533 8.89464 5.98286 8.70711C6.1704 8.51957 6.27576 8.26522 6.27576 8V5C6.27576 4.73478 6.38111 4.48043 6.56865 4.29289C6.75619 4.10536 7.01054 4 7.27576 4H17.2758C17.541 4 17.7953 4.10536 17.9829 4.29289C18.1704 4.48043 18.2758 4.73478 18.2758 5V19C18.2758 19.2652 18.1704 19.5196 17.9829 19.7071C17.7953 19.8946 17.541 20 17.2758 20H7.27576C7.01054 20 6.75619 19.8946 6.56865 19.7071C6.38111 19.5196 6.27576 19.2652 6.27576 19V16C6.27576 15.7348 6.1704 15.4804 5.98286 15.2929C5.79533 15.1054 5.54097 15 5.27576 15C5.01054 15 4.75619 15.1054 4.56865 15.2929C4.38111 15.4804 4.27576 15.7348 4.27576 16V19C4.27576 19.7956 4.59183 20.5587 5.15444 21.1213C5.71705 21.6839 6.48011 22 7.27576 22H17.2758C18.0714 22 18.8345 21.6839 19.3971 21.1213C19.9597 20.5587 20.2758 19.7956 20.2758 19V5C20.2758 4.20435 19.9597 3.44129 19.3971 2.87868C18.8345 2.31607 18.0714 2 17.2758 2Z" fill="white"/>
</g>
</svg>
