<svg width="25" height="24" viewBox="0 0 25 24" fill="none" xmlns="http://www.w3.org/2000/svg">
<g id="users / 24 / Outline">
<path id="Vector" d="M12.5758 12.22C13.1093 11.7581 13.5373 11.1869 13.8306 10.545C14.124 9.90316 14.2758 9.20571 14.2758 8.5C14.2758 7.17392 13.749 5.90215 12.8113 4.96447C11.8736 4.02678 10.6018 3.5 9.27576 3.5C7.94967 3.5 6.67791 4.02678 5.74022 4.96447C4.80254 5.90215 4.27576 7.17392 4.27576 8.5C4.27575 9.20571 4.42756 9.90316 4.72088 10.545C5.01421 11.1869 5.44218 11.7581 5.97576 12.22C4.5759 12.8539 3.38822 13.8775 2.55474 15.1685C1.72125 16.4596 1.27723 17.9633 1.27576 19.5C1.27576 19.7652 1.38111 20.0196 1.56865 20.2071C1.75619 20.3946 2.01054 20.5 2.27576 20.5C2.54097 20.5 2.79533 20.3946 2.98286 20.2071C3.1704 20.0196 3.27576 19.7652 3.27576 19.5C3.27576 17.9087 3.9079 16.3826 5.03312 15.2574C6.15833 14.1321 7.68446 13.5 9.27576 13.5C10.8671 13.5 12.3932 14.1321 13.5184 15.2574C14.6436 16.3826 15.2758 17.9087 15.2758 19.5C15.2758 19.7652 15.3811 20.0196 15.5687 20.2071C15.7562 20.3946 16.0105 20.5 16.2758 20.5C16.541 20.5 16.7953 20.3946 16.9829 20.2071C17.1704 20.0196 17.2758 19.7652 17.2758 19.5C17.2743 17.9633 16.8303 16.4596 15.9968 15.1685C15.1633 13.8775 13.9756 12.8539 12.5758 12.22ZM9.27576 11.5C8.68241 11.5 8.10239 11.3241 7.60905 10.9944C7.1157 10.6648 6.73118 10.1962 6.50412 9.64805C6.27706 9.09987 6.21765 8.49667 6.3334 7.91473C6.44916 7.33279 6.73488 6.79824 7.15444 6.37868C7.57399 5.95912 8.10854 5.6734 8.69049 5.55764C9.27243 5.44189 9.87563 5.5013 10.4238 5.72836C10.972 5.95542 11.4405 6.33994 11.7702 6.83329C12.0998 7.32664 12.2758 7.90666 12.2758 8.5C12.2758 9.29565 11.9597 10.0587 11.3971 10.6213C10.8345 11.1839 10.0714 11.5 9.27576 11.5ZM19.0158 11.82C19.6557 11.0993 20.0738 10.2091 20.2196 9.25634C20.3654 8.30362 20.2327 7.32907 19.8375 6.45C19.4424 5.57093 18.8015 4.8248 17.9922 4.30142C17.1829 3.77805 16.2396 3.49974 15.2758 3.5C15.0105 3.5 14.7562 3.60536 14.5687 3.79289C14.3811 3.98043 14.2758 4.23478 14.2758 4.5C14.2758 4.76522 14.3811 5.01957 14.5687 5.20711C14.7562 5.39464 15.0105 5.5 15.2758 5.5C16.0714 5.5 16.8345 5.81607 17.3971 6.37868C17.9597 6.94129 18.2758 7.70435 18.2758 8.5C18.2743 9.02524 18.1351 9.5409 17.8718 9.99542C17.6086 10.4499 17.2306 10.8274 16.7758 11.09C16.6275 11.1755 16.5037 11.2977 16.4161 11.4447C16.3286 11.5918 16.2802 11.7589 16.2758 11.93C16.2716 12.0998 16.3107 12.2678 16.3894 12.4183C16.4681 12.5687 16.5839 12.6967 16.7258 12.79L17.1158 13.05L17.2458 13.12C18.4512 13.6917 19.4681 14.596 20.1767 15.7263C20.8854 16.8566 21.2563 18.1659 21.2458 19.5C21.2458 19.7652 21.3511 20.0196 21.5387 20.2071C21.7262 20.3946 21.9805 20.5 22.2458 20.5C22.511 20.5 22.7653 20.3946 22.9529 20.2071C23.1404 20.0196 23.2458 19.7652 23.2458 19.5C23.2539 17.9654 22.8696 16.4543 22.1292 15.1101C21.3889 13.7659 20.3171 12.6333 19.0158 11.82Z" fill="white"/>
</g>
</svg>
